<?xml version="1.0" encoding="UTF-8" standalone="no"?>
<svg
   xmlns:dc="http://purl.org/dc/elements/1.1/"
   xmlns:cc="http://creativecommons.org/ns#"
   xmlns:rdf="http://www.w3.org/1999/02/22-rdf-syntax-ns#"
   xmlns:svg="http://www.w3.org/2000/svg"
   xmlns="http://www.w3.org/2000/svg"
   xmlns:sodipodi="http://sodipodi.sourceforge.net/DTD/sodipodi-0.dtd"
   xmlns:inkscape="http://www.inkscape.org/namespaces/inkscape"
   width="300"
   height="45"
   viewBox="0 0 79.374999 11.90625"
   version="1.1"
   id="svg8"
   inkscape:version="1.0.2 (e86c870879, 2021-01-15, custom)"
   sodipodi:docname="drawing.svg">
  <defs
     id="defs2" />
  <sodipodi:namedview
     id="base"
     pagecolor="#ffffff"
     bordercolor="#666666"
     borderopacity="1.0"
     inkscape:pageopacity="0.0"
     inkscape:pageshadow="2"
     inkscape:zoom="1.979899"
     inkscape:cx="274.33715"
     inkscape:cy="125.44129"
     inkscape:document-units="mm"
     inkscape:current-layer="layer1"
     inkscape:document-rotation="0"
     showgrid="false"
     inkscape:window-width="2560"
     inkscape:window-height="1377"
     inkscape:window-x="2552"
     inkscape:window-y="-8"
     inkscape:window-maximized="1"
     units="px" />
  <metadata
     id="metadata5">
    <rdf:RDF>
      <cc:Work
         rdf:about="">
        <dc:format>image/svg+xml</dc:format>
        <dc:type
           rdf:resource="http://purl.org/dc/dcmitype/StillImage" />
        <dc:title></dc:title>
      </cc:Work>
    </rdf:RDF>
  </metadata>
  <g
     inkscape:label="Layer 1"
     inkscape:groupmode="layer"
     id="layer1">
    <g
       aria-label="GAMECON"
       id="text834"
       style="font-style:normal;font-weight:normal;font-size:10.5833px;line-height:1.25;font-family:sans-serif;fill:#000000;fill-opacity:1;stroke:none;stroke-width:0.264583"
       transform="matrix(1.5476756,0,0,1.5453346,-57.765596,-122.90255)">
      <path
         d="m 44.933491,83.108509 v 0.571498 q 0,1.587495 -1.015997,2.571742 -1.015997,0.984247 -2.624658,0.984247 -1.714495,0 -2.846908,-1.111247 -1.121829,-1.121829 -1.121829,-2.730491 0,-1.619245 1.111246,-2.741075 1.12183,-1.121829 2.772825,-1.121829 1.037163,0 1.89441,0.476248 0.857247,0.465665 1.333496,1.248829 l -1.248829,0.719665 q -0.264583,-0.455082 -0.804331,-0.740831 -0.529165,-0.285749 -1.18533,-0.285749 -1.05833,0 -1.746244,0.698498 -0.677331,0.687914 -0.677331,1.746244 0,1.047747 0.687914,1.735661 0.698498,0.677331 1.841494,0.677331 0.846664,0 1.396996,-0.370415 0.560915,-0.380999 0.761997,-1.037164 h -2.243659 v -1.291162 z"
         style="font-style:normal;font-variant:normal;font-weight:bold;font-stretch:normal;font-family:Gilroy-Bold;-inkscape-font-specification:'Gilroy-Bold Bold';stroke-width:0.264583"
         id="path836" />
      <path
         d="M 50.468539,87.08783 50.024041,85.754334 H 47.0713 L 46.626801,87.08783 H 45.04989 l 2.592908,-7.40831 h 1.809744 l 2.603492,7.40831 z m -2.931574,-2.698742 h 2.031994 l -1.015997,-3.026824 z"
         style="font-style:normal;font-variant:normal;font-weight:bold;font-stretch:normal;font-family:Gilroy-Bold;-inkscape-font-specification:'Gilroy-Bold Bold';stroke-width:0.264583"
         id="path838" />
      <path
         d="m 60.025251,79.67952 v 7.40831 h -1.449912 v -4.804818 l -2.08491,3.439572 h -0.169333 l -2.08491,-3.428989 v 4.794235 h -1.460495 v -7.40831 h 1.502828 l 2.127243,3.503072 2.11666,-3.503072 z"
         style="font-style:normal;font-variant:normal;font-weight:bold;font-stretch:normal;font-family:Gilroy-Bold;-inkscape-font-specification:'Gilroy-Bold Bold';stroke-width:0.264583"
         id="path840" />
      <path
         d="m 62.86156,85.690834 h 3.122073 v 1.396996 h -4.582568 v -7.40831 h 4.529652 v 1.396995 H 62.86156 v 1.576912 h 2.804574 v 1.375829 H 62.86156 Z"
         style="font-style:normal;font-variant:normal;font-weight:bold;font-stretch:normal;font-family:Gilroy-Bold;-inkscape-font-specification:'Gilroy-Bold Bold';stroke-width:0.264583"
         id="path842" />
      <path
         d="m 70.47093,87.235996 q -1.672162,0 -2.762242,-1.111247 -1.09008,-1.111246 -1.09008,-2.741074 0,-1.640412 1.09008,-2.741075 1.09008,-1.111246 2.762242,-1.111246 1.005413,0 1.852077,0.476248 0.857247,0.465665 1.333496,1.269996 l -1.259413,0.730248 q -0.275166,-0.497415 -0.783164,-0.772581 -0.507998,-0.285749 -1.142996,-0.285749 -1.079497,0 -1.746245,0.677331 -0.656164,0.677331 -0.656164,1.756828 0,1.068913 0.656164,1.746244 0.666748,0.677331 1.746245,0.677331 0.634998,0 1.142996,-0.275165 0.518582,-0.28575 0.783164,-0.772581 l 1.259413,0.730247 q -0.476249,0.804331 -1.322913,1.28058 -0.846664,0.465665 -1.86266,0.465665 z"
         style="font-style:normal;font-variant:normal;font-weight:bold;font-stretch:normal;font-family:Gilroy-Bold;-inkscape-font-specification:'Gilroy-Bold Bold';stroke-width:0.264583"
         id="path844" />
      <path
         d="m 80.715549,86.124749 q -1.12183,1.111247 -2.730491,1.111247 -1.608662,0 -2.730491,-1.111247 -1.111247,-1.121829 -1.111247,-2.741074 0,-1.619245 1.111247,-2.730492 1.121829,-1.121829 2.730491,-1.121829 1.608661,0 2.730491,1.121829 1.12183,1.111247 1.12183,2.730492 0,1.619245 -1.12183,2.741074 z m -4.434402,-0.99483 q 0.687914,0.677331 1.703911,0.677331 1.015997,0 1.703911,-0.677331 0.687915,-0.687914 0.687915,-1.746244 0,-1.05833 -0.687915,-1.746245 -0.687914,-0.687914 -1.703911,-0.687914 -1.015997,0 -1.703911,0.687914 -0.687915,0.687915 -0.687915,1.746245 0,1.05833 0.687915,1.746244 z"
         style="font-style:normal;font-variant:normal;font-weight:bold;font-stretch:normal;font-family:Gilroy-Bold;-inkscape-font-specification:'Gilroy-Bold Bold';stroke-width:0.264583"
         id="path846" />
      <path
         d="m 87.150191,79.67952 h 1.460496 v 7.40831 H 87.49944 l -3.17499,-4.529653 v 4.529653 h -1.460495 v -7.40831 h 1.111247 l 3.174989,4.519069 z"
         style="font-style:normal;font-variant:normal;font-weight:bold;font-stretch:normal;font-family:Gilroy-Bold;-inkscape-font-specification:'Gilroy-Bold Bold';stroke-width:0.264583"
         id="path848" />
    </g>
  </g>
</svg>
